<?xml version="1.0" standalone="no"?>
<!DOCTYPE svg PUBLIC "-//W3C//DTD SVG 20010904//EN"
 "http://www.w3.org/TR/2001/REC-SVG-20010904/DTD/svg10.dtd">
<svg version="1.0" xmlns="http://www.w3.org/2000/svg"
 width="32.000000pt" height="32.000000pt" viewBox="0 0 32.000000 32.000000"
 preserveAspectRatio="xMidYMid meet">

<g transform="translate(0.000000,32.000000) scale(0.100000,-0.100000)"
fill="#000000" stroke="none">
<path d="M12 308 c-17 -17 -17 -279 0 -296 17 -17 279 -17 296 0 17 17 17 279
0 296 -17 17 -279 17 -296 0z m122 -145 c26 -66 27 -91 3 -61 -19 25 -65 29
-72 7 -4 -11 -11 -19 -16 -19 -12 0 -12 0 5 46 28 78 36 94 45 94 5 0 21 -30
35 -67z m134 55 c7 -7 12 -19 12 -27 0 -11 -6 -9 -21 8 -25 26 -39 24 -59 -12
-13 -24 -13 -30 0 -54 20 -36 34 -38 59 -12 15 17 21 19 21 8 0 -38 -65 -54
-91 -23 -17 21 -17 87 0 108 16 19 62 21 79 4z"/>
<path d="M86 178 c-9 -35 -8 -38 15 -38 16 0 19 4 14 23 -11 35 -22 41 -29 15z"/>
</g>
</svg>
